HIERARCHY
ROOT Hips
{
	OFFSET 0.000000 0.000000 0.000000 
	CHANNELS 6 Xposition Yposition Zposition Zrotation Yrotation Xrotation
	JOINT LeftUpLeg
	{
		OFFSET 1.363060 -1.794630 0.839290 
		CHANNELS 3 Zrotation Yrotation Xrotation
		JOINT LeftLeg
		{
			OFFSET 2.448110 -6.726130 0.000000 
			CHANNELS 3 Zrotation Yrotation Xrotation
			JOINT LeftFoot
			{
				OFFSET 2.562200 -7.039590 0.000000 
				CHANNELS 3 Zrotation Yrotation Xrotation
				JOINT LeftToeBase
				{
					OFFSET 0.157640 -0.433110 2.322550 
					CHANNELS 3 Zrotation Yrotation Xrotation
					End Site
					{
						OFFSET 0.000000 0.000000 0.000000 
					}
				}
			}
		}
	}
	JOINT RightUpLeg
	{
		OFFSET -1.305520 -1.794630 0.839290 
		CHANNELS 3 Zrotation Yrotation Xrotation
		JOINT RightLeg
		{
			OFFSET -2.542530 -6.985550 0.000000 
			CHANNELS 3 Zrotation Yrotation Xrotation
			JOINT RightFoot
			{
				OFFSET -2.568260 -7.056230 0.000000 
				CHANNELS 3 Zrotation Yrotation Xrotation
				JOINT RightToeBase
				{
					OFFSET -0.164730 -0.452590 2.363150 
					CHANNELS 3 Zrotation Yrotation Xrotation
					End Site
					{
						OFFSET 0.000000 0.000000 0.000000 
					}
				}
			}
		}
	}
	JOINT Spine
	{
		OFFSET 0.028270 2.035590 -0.193380 
		CHANNELS 3 Zrotation Yrotation Xrotation
		JOINT Spine1
		{
			OFFSET 0.056720 2.048850 -0.042750 
			CHANNELS 3 Zrotation Yrotation Xrotation
			JOINT Neck1
			{
				OFFSET -0.054170 1.746240 0.172020 
				CHANNELS 3 Zrotation Yrotation Xrotation
				JOINT Head
				{
					OFFSET 0.104070 1.761360 -0.123970 
					CHANNELS 3 Zrotation Yrotation Xrotation
					End Site
					{
						OFFSET 0.000000 0.000000 0.000000 
					}
				}
			}
			JOINT LeftArm
			{
				OFFSET 3.362410 1.200890 -0.311210 
				CHANNELS 3 Zrotation Yrotation Xrotation
				JOINT LeftForeArm
				{
					OFFSET 4.983000 -0.000000 -0.000000 
					CHANNELS 3 Zrotation Yrotation Xrotation
					JOINT LeftHand
					{
						OFFSET 3.483560 -0.000000 -0.000000 
						CHANNELS 3 Zrotation Yrotation Xrotation
						JOINT LeftHandIndex1
						{
							OFFSET 0.715260 -0.000000 -0.000000 
							CHANNELS 3 Zrotation Yrotation Xrotation
							End Site
							{
								OFFSET 0.000000 0.000000 0.000000 
							}
						}
					}
				}
			}
			JOINT RightArm
			{
				OFFSET -3.136600 1.374050 -0.404650 
				CHANNELS 3 Zrotation Yrotation Xrotation
				JOINT RightForeArm
				{
					OFFSET -5.241900 -0.000000 -0.000000 
					CHANNELS 3 Zrotation Yrotation Xrotation
					JOINT RightHand
					{
						OFFSET -3.444170 -0.000000 -0.000000 
						CHANNELS 3 Zrotation Yrotation Xrotation
						JOINT RightHandIndex1
						{
							OFFSET -0.622530 -0.000000 -0.000000 
							CHANNELS 3 Zrotation Yrotation Xrotation
							End Site
							{
								OFFSET 0.000000 0.000000 0.000000 
							}
						}
					}
				}
			}
		}
	}
}
MOTION
Frames: 15
Frame Time: 0.041667
10.361802 17.825547 49.691863 -176.310362 -14.989953 178.086391 -15.306585 -29.640158 -1.155832 -1.575800 9.359106 26.710462 -2.009874 8.191533 -1.754756 2.359800 -9.578300 -27.621800 30.270792 15.494831 2.384780 2.877914 -7.275673 23.666384 6.850335 -28.335469 -28.075502 -2.006100 -8.878800 25.417000 2.849383 1.468521 2.655671 -6.618545 0.033090 -10.439636 1.387522 24.849081 8.935684 -2.197700 12.618700 5.128600 -89.411738 6.842661 29.895968 23.812016 -23.858800 -6.617263 1.624842 1.117618 19.545022 -7.125000 0.000000 0.000000 88.497724 -9.449562 33.067387 -24.617594 28.721504 -8.139064 -0.033935 1.248118 -12.189245 7.125000 0.000000 0.000000 
10.362630 17.774772 49.704291 177.227378 -13.881566 176.962527 -22.936506 -27.917913 3.769298 -2.557378 7.924974 22.735741 -2.581578 9.500204 -1.321003 2.344800 -9.550200 -27.532000 24.072338 15.868182 2.158851 1.694967 -8.899616 29.038321 5.698955 -25.740146 -29.488268 -1.811400 -8.461700 24.125400 -0.388415 1.680603 4.344855 -4.384880 0.571944 -11.896133 3.837366 24.927997 8.859475 -1.340500 12.712900 4.544100 -89.481442 6.897367 31.302842 24.514873 -24.450545 -6.740166 1.544734 0.885618 18.327219 -7.125000 0.000000 0.000000 88.341243 -9.889737 35.259800 -23.871555 27.879712 -7.718732 0.189335 1.269586 -7.774666 7.125000 0.000000 0.000000 
10.354109 17.715358 49.685117 172.576588 -12.451787 176.369370 -29.483951 -27.352033 5.712061 -2.234015 8.533874 24.529733 -2.737171 10.158421 -4.943113 2.297800 -9.460600 -27.247200 19.030573 15.213852 3.426178 1.737290 -8.214811 27.618621 6.486712 -25.532601 -26.353897 -1.467300 -7.655100 21.671400 -2.596461 2.112808 5.447707 -2.839358 1.060970 -12.303621 1.735122 24.847594 7.582759 -2.216600 12.534800 4.396600 -89.382220 6.739632 30.327456 24.011890 -24.027949 -6.634940 1.684265 0.969117 18.870705 -7.125000 0.000000 0.000000 88.257196 -10.232590 37.318796 -23.137427 27.015916 -7.296683 0.432196 1.242617 -2.987911 7.125000 0.000000 0.000000 
10.443349 17.890761 49.795306 -176.491301 -11.706158 179.597453 -13.730796 -27.225740 -2.571864 -2.241421 8.288021 23.460932 -2.851330 10.111195 0.881696 2.326900 -9.516100 -27.423500 29.891178 18.126983 -0.326313 2.321370 -8.575252 26.551647 6.585951 -27.436599 -27.398457 -1.560900 -7.884300 22.363100 3.081975 3.315060 1.310265 -6.245644 0.976936 -11.438647 1.676709 24.814911 5.483605 -2.445200 12.366700 3.431300 -89.170864 6.859609 29.873127 23.781007 -23.831713 -6.593149 1.736442 1.005696 19.290187 -7.125000 0.000000 0.000000 88.227212 -10.861273 39.334016 -22.519511 26.061881 -6.912629 0.690232 1.163020 1.770742 7.125000 0.000000 0.000000 
10.447018 17.904727 49.791519 -176.560045 -11.448817 -179.847383 -13.596026 -26.950414 -3.505545 -2.091796 8.575647 24.203785 -2.724539 9.831910 0.455040 2.404200 -9.661700 -27.887900 29.584896 18.292157 -0.365452 2.534347 -8.209294 25.417633 6.907726 -27.804475 -26.596230 -1.581200 -7.933100 22.511000 3.050988 3.414357 1.088021 -6.165523 1.033570 -11.109258 0.177973 24.796841 5.078509 -3.029000 12.312400 3.558200 -89.212817 6.769800 29.878721 23.846064 -23.869450 -6.583486 1.748414 0.952655 19.213861 -7.125000 0.000000 0.000000 88.133306 -11.231587 41.222738 -22.014601 25.368139 -6.617528 0.938189 1.005758 6.399303 7.125000 0.000000 0.000000 
10.452107 17.926386 49.794833 -176.610360 -11.047669 -179.080791 -13.442463 -26.814115 -4.810585 -1.820355 9.080059 25.521152 -2.593718 9.550339 -0.551625 2.446900 -9.740800 -28.141400 29.161820 18.461153 -0.229292 2.903027 -7.506867 23.312948 7.523210 -28.573926 -25.031304 -1.484600 -7.698100 21.800800 3.034280 3.634434 0.716901 -6.115234 1.166263 -10.809769 0.251056 24.857011 4.611524 -3.045500 12.313600 3.331900 -89.249698 6.759648 30.653227 24.235522 -24.181252 -6.639736 1.685977 0.826423 18.407123 -7.125000 0.000000 0.000000 87.866677 -12.043288 44.702547 -21.324856 24.410268 -6.295952 1.266620 0.596711 15.208967 7.125000 0.000000 0.000000 
10.456013 17.926268 49.800159 -176.652152 -11.274710 -179.165958 -13.467360 -26.799292 -4.764515 -1.831646 9.054608 25.461603 -2.494102 9.326982 -0.396260 2.350600 -9.561000 -27.566500 29.202139 18.493772 -0.076330 2.918446 -7.480931 23.277981 7.520299 -28.675736 -25.305208 -1.484100 -7.696800 21.797000 3.005531 3.553182 0.861748 -6.081631 1.145114 -10.807988 0.624596 24.933576 4.497890 -2.903700 12.345400 3.217100 -89.147041 6.659796 30.704241 24.270775 -24.224048 -6.657541 1.695470 0.814247 18.008289 -7.125000 0.000000 0.000000 87.815503 -11.954343 44.569404 -21.405389 24.496303 -6.326681 1.270706 0.582440 15.519455 7.125000 0.000000 0.000000 
10.458025 17.929937 49.803236 -176.701996 -11.322984 -179.057863 -13.453043 -26.768020 -4.878868 -1.844135 9.039959 25.394648 -2.559639 9.473972 -0.295361 2.475300 -9.792800 -28.308400 29.111564 18.515799 -0.184151 2.926825 -7.476570 23.244877 7.515591 -28.651313 -25.304890 -1.569000 -7.904000 22.422800 2.966486 3.541563 0.840509 -6.061286 1.145457 -10.756981 0.582239 24.945520 4.438311 -2.915100 12.344900 3.200900 -89.068223 6.689611 30.791333 24.129328 -24.047817 -6.580127 1.648582 0.874071 18.719587 -7.125000 0.000000 0.000000 87.800220 -11.895712 44.507747 -21.505077 24.629715 -6.392558 1.250326 0.614962 14.960606 7.125000 0.000000 0.000000 
10.460155 17.928043 49.807497 -176.718900 -11.357657 -179.066217 -13.467951 -26.734374 -4.899022 -1.849469 9.041354 25.381208 -2.689413 9.763605 -0.382107 2.829700 -10.414100 -30.328300 29.099822 18.597125 -0.160047 2.933759 -7.473892 23.244898 7.473213 -28.606457 -25.464581 -1.690800 -8.189900 23.292500 2.984779 3.530408 0.815401 -6.033262 1.141296 -10.800121 0.628456 24.916331 4.512998 -2.897100 12.337100 3.214000 -89.075584 6.744266 30.735172 24.145576 -24.051068 -6.565799 1.655966 0.839934 18.579803 -7.125000 0.000000 0.000000 87.745505 -11.986500 44.818887 -21.427192 24.526688 -6.346180 1.268918 0.583087 15.527551 7.125000 0.000000 0.000000 
10.462049 17.929227 49.814361 -176.751245 -11.421598 -178.959029 -13.474728 -26.948044 -4.902870 -1.852294 9.037480 25.356034 -2.764857 9.929141 -0.433953 2.766400 -10.307000 -29.976800 29.016892 18.631005 -0.288154 2.940919 -7.478373 23.230003 7.470409 -28.608005 -25.512393 -1.739700 -8.301400 23.633300 2.945566 3.517633 0.756549 -6.028813 1.136509 -10.790703 0.914169 24.882818 4.561947 -2.784900 12.325200 3.174700 -89.069575 6.685185 30.533867 24.245195 -24.163187 -6.600882 1.697872 0.769011 17.870926 -7.125000 0.000000 0.000000 87.748738 -12.001567 44.877962 -21.413954 24.498775 -6.325146 1.276505 0.569032 15.789042 7.125000 0.000000 0.000000 
10.461457 17.928280 49.818859 -176.760848 -11.411616 -178.942015 -13.512023 -27.232209 -4.787195 -1.845717 9.036441 25.365784 -2.745952 9.882037 -0.427435 2.382500 -9.621100 -27.758300 28.958436 18.511190 -0.378803 2.938333 -7.480944 23.225719 7.473910 -28.566713 -25.405318 -1.707600 -8.228400 23.410000 2.871833 3.549530 0.788067 -6.090207 1.154677 -10.775479 1.375196 24.841600 4.505780 -2.606200 12.300600 3.059600 -89.029629 6.665538 30.469105 24.069979 -23.968546 -6.528547 1.658677 0.853585 18.711788 -7.125000 0.000000 0.000000 87.791450 -11.965643 44.888019 -21.363904 24.431816 -6.298045 1.281870 0.561214 16.054067 7.125000 0.000000 0.000000 
10.460037 17.928871 49.821108 -176.768305 -11.178728 -178.915386 -13.422088 -26.664392 -5.108992 -1.836318 9.059095 25.431949 -2.517639 9.383454 -0.303958 2.301400 -9.467400 -27.268700 28.900814 18.458552 -0.435718 2.931400 -7.479274 23.214689 7.471254 -28.459606 -25.169618 -1.604000 -7.987300 22.675500 2.863554 3.667810 0.851234 -6.121966 1.224657 -10.733364 1.872113 24.864136 4.297932 -2.722600 12.314200 3.213600 -89.019010 6.633085 30.411828 24.017423 -23.901892 -6.500224 1.625657 0.894277 19.064187 -7.125000 0.000000 0.000000 87.770698 -11.929374 44.937624 -21.356078 24.426653 -6.309325 1.277075 0.569442 16.085330 7.125000 0.000000 0.000000 
10.461457 17.923427 49.820279 -176.731039 -11.527312 -179.084437 -13.520458 -27.217070 -4.731387 -1.835014 9.054495 25.442240 -2.662554 9.696370 -0.654310 2.479500 -9.800600 -28.333300 29.049544 18.460680 -0.230066 2.940859 -7.468719 23.239914 7.402639 -28.470065 -25.586018 -1.663900 -8.127900 23.103100 2.936546 3.494594 1.000789 -6.082817 1.146428 -10.711076 1.889855 24.910335 4.295062 -2.704500 12.336700 3.202700 -89.093269 6.568014 30.174530 23.999110 -23.860002 -6.471435 1.571871 0.935484 19.272230 -7.125000 0.000000 0.000000 87.693159 -11.896705 45.040174 -21.434430 24.533229 -6.364759 1.261114 0.593265 15.725263 7.125000 0.000000 0.000000 
10.461931 17.924256 49.829866 -176.665252 -11.298349 -179.061893 -13.439684 -27.149001 -4.801195 -1.836945 9.056455 25.435069 -2.754405 9.902649 -0.738313 2.519500 -9.873200 -28.567200 29.055925 18.425475 -0.371700 2.920838 -7.496728 23.274866 7.434847 -28.403151 -25.203470 -1.601500 -7.981500 22.657800 2.994187 3.604730 0.942447 -6.114021 1.188888 -10.787817 1.913652 24.895241 4.403432 -2.687700 12.337100 3.250400 -89.162986 6.531417 29.811981 24.009834 -23.861222 -6.470845 1.487216 1.017187 19.325006 -7.125000 0.000000 0.000000 87.670119 -11.871090 45.143805 -21.418174 24.522681 -6.366236 1.254394 0.604372 15.583728 7.125000 0.000000 0.000000 
10.464535 17.923427 49.832233 -176.734091 -11.595760 -179.095178 -13.495573 -27.249344 -4.763319 -1.833832 9.046547 25.420267 -2.617131 9.593194 -0.463005 2.467000 -9.777600 -28.259600 29.046278 18.407713 -0.351733 2.921869 -7.508814 23.324098 7.470994 -28.620926 -25.523510 -1.581300 -7.933200 22.511500 2.960084 3.468124 0.970310 -6.051293 1.132071 -10.803542 2.020663 24.885567 4.444449 -2.633100 12.334700 3.249000 -89.168014 6.479561 29.481730 24.084805 -23.982742 -6.540964 1.514099 1.024161 18.853053 -7.125000 0.000000 0.000000 87.705243 -11.852194 45.082648 -21.393479 24.496930 -6.354029 1.252744 0.608350 15.562511 7.125000 0.000000 0.000000 
